<svg xmlns="http://www.w3.org/2000/svg" width="256" height="256" viewBox="0 0 256 256">
  <rect width="256" height="256" fill="#8f6338"/>
  <path d="M0 36c36-18 78-18 124 0 46 18 90 18 132 0v28c-42 18-86 18-132 0-46-18-88-18-124 0z" fill="#b9854d" opacity=".65"/>
  <path d="M0 116c28-13 62-15 102-6 50 12 102 11 154-3v30c-52 14-104 15-154 3-40-9-74-7-102 6z" fill="#6f4929" opacity=".55"/>
  <path d="M0 188c48-18 92-14 132 12 38 24 80 27 124 8v28c-44 19-86 16-124-8-40-26-84-30-132-12z" fill="#c89558" opacity=".55"/>
  <path d="M32 0v256M96 0v256M160 0v256M224 0v256" stroke="#4f321e" stroke-width="3" opacity=".28"/>
  <path d="M0 72h256M0 152h256M0 232h256" stroke="#f1c27c" stroke-width="2" opacity=".28"/>
</svg>
